<svg width="270" height="17" viewBox="0 0 270 17" fill="none" xmlns="http://www.w3.org/2000/svg">
<path fill-rule="evenodd" clip-rule="evenodd" d="M142.371 14.5516H140.539V15.5425H143.497V0.553223H140.539V1.54417H142.371V14.5516ZM126.649 15.5428V14.5518H124.818V1.54441H126.649V0.553467H123.692V15.5428H126.649ZM131.199 7.81892C131.199 6.5703 132.211 5.55811 133.46 5.55811C134.708 5.55811 135.721 6.5703 135.721 7.81892C135.721 9.06753 134.708 10.0797 133.46 10.0797C132.211 10.0797 131.199 9.06753 131.199 7.81892ZM55.9744 4.56332C55.6789 3.95672 55.119 2.99238 54.7301 2.43244L53.7191 2.85239C54.1391 3.44344 54.6524 4.37668 54.9634 5.01439L55.9744 4.56332ZM57.7787 3.8945C57.4832 3.33456 56.8921 2.35467 56.4877 1.77917L55.4923 2.19913C55.9278 2.77462 56.4255 3.67675 56.7677 4.33001L57.7787 3.8945ZM55.4923 6.63199C55.5856 6.32091 55.7722 5.93207 55.9122 5.66765L54.6368 4.88995C54.3413 4.99883 53.9213 5.06105 53.4703 5.06105H49.7404C49.8212 4.92422 49.898 4.78928 49.9706 4.65665C50.1262 4.34557 50.4684 3.73897 50.7639 3.27235L48.9596 2.6813C48.8507 3.13236 48.5708 3.77007 48.3841 4.08115C47.6687 5.44989 46.2066 7.61189 43.5158 9.22949L44.8845 10.256C46.5061 9.16439 47.8244 7.79107 48.8098 6.4609H53.688C53.3925 7.75187 52.4593 9.71166 51.3238 11.0337C49.924 12.6513 48.0886 14.0356 45.0867 14.9222L46.5177 16.2132C49.4418 15.0933 51.3083 13.6779 52.7548 11.9048C54.1391 10.2094 55.0723 8.10961 55.4923 6.63199ZM217.256 7.81409C218.183 8.35128 219.274 9.05212 220.324 9.76998C221.235 8.51267 221.972 6.97403 222.249 5.83874H217.344C216.313 7.25574 214.901 8.76552 213.228 9.91386L211.921 8.90286C214.612 7.22304 216.136 4.98328 216.883 3.58343C217.085 3.27235 217.365 2.65019 217.474 2.18358L219.263 2.74352C218.962 3.17352 218.661 3.7224 218.481 4.04933L218.481 4.04948L218.438 4.12781C218.382 4.22972 218.324 4.33349 218.262 4.43889H222.016C222.467 4.43889 222.887 4.37668 223.182 4.28335L224.458 5.06105C224.302 5.30991 224.131 5.69876 224.022 6.00983C223.606 7.36781 222.796 9.12082 221.645 10.697C222.311 11.1781 222.918 11.6377 223.4 12.0292L222.233 13.4135C221.791 13.0009 221.211 12.517 220.565 12.0112C219.187 13.5067 217.337 14.8913 214.799 15.8399L213.383 14.6111C216.045 13.7964 217.912 12.4363 219.264 11.0277C218.193 10.2431 217.075 9.48119 216.167 8.91841L217.256 7.81409ZM233.448 3.98783C233.463 3.61453 233.494 3.02349 233.541 2.66575H231.721C231.784 3.03904 231.83 3.67675 231.83 4.01894C231.827 4.53551 231.81 5.02749 231.781 5.49656H229.264C228.673 5.49656 227.957 5.46545 227.366 5.40323V7.03639C227.973 6.97418 228.704 6.97418 229.279 6.97418H231.638C231.253 9.79571 230.297 11.6665 228.782 13.0869C228.253 13.6157 227.553 14.0823 226.993 14.3934L228.424 15.5444C231.097 13.6681 232.655 11.2822 233.221 6.97418H237.212C237.212 8.63844 237.01 12.1536 236.481 13.2579C236.31 13.6312 236.045 13.7868 235.579 13.7868C234.941 13.7868 234.132 13.709 233.323 13.5846L233.526 15.2177C234.303 15.28 235.221 15.3422 236.045 15.3422C236.994 15.3422 237.538 15 237.865 14.2845C238.549 12.7447 238.736 8.31181 238.798 6.72531C238.798 6.53867 238.845 6.19648 238.892 5.94762L237.803 5.40323C237.492 5.46545 237.15 5.49656 236.745 5.49656H233.371C233.407 5.01549 233.432 4.51307 233.448 3.98783ZM244.709 3.05459C246.731 3.30346 251.039 4.19003 252.999 4.8744L252.377 6.39868C250.526 5.71431 246.295 4.78108 244.133 4.50111L244.709 3.05459ZM243.993 7.19193C246.171 7.56522 250.013 8.37403 251.957 9.07395L251.35 10.5982C249.562 9.89831 245.673 9.02729 243.418 8.66955L243.993 7.19193ZM243.169 11.687C245.798 12.107 250.433 13.1957 252.564 14.0201L251.895 15.5444C249.81 14.6578 245.067 13.6001 242.562 13.2113L243.169 11.687ZM262.238 3.13236C262.596 3.87895 263.545 6.32091 263.825 7.25415L262.285 7.78298C262.005 6.84974 261.134 4.51666 260.714 3.63009L262.238 3.13236ZM269.237 4.23669C269.097 4.54777 268.973 4.96772 268.895 5.24769C268.444 7.08305 267.589 9.41614 266.298 11.096C264.68 13.2268 262.409 14.8133 260.201 15.6221L258.832 14.2534C261.009 13.6157 263.374 12.1692 264.96 10.1627C266.158 8.63844 267.122 6.07205 267.402 3.70786L269.237 4.23669ZM257.898 4.08115C258.334 4.99883 259.314 7.34747 259.672 8.37403L258.101 8.94952C257.805 7.96963 256.748 5.37212 256.343 4.62554L257.898 4.08115ZM204.113 5.10771C203.382 4.57888 201.625 3.42789 200.66 2.89905L199.774 4.23669C200.738 4.78108 202.387 5.86985 203.195 6.4609L204.113 5.10771ZM203.335 12.2003C201.702 13.118 199.805 13.6935 198.078 13.989L198.996 15.591C200.411 15.3111 202.589 14.5645 204.175 13.6624C206.68 12.2003 208.857 10.2094 210.241 8.09406L209.293 6.44534C208.048 8.654 205.949 10.7227 203.335 12.2003ZM201.765 8.56067C201.033 8.03184 199.26 6.94307 198.296 6.41424L197.409 7.76742C198.389 8.2807 200.054 9.35392 200.862 9.92942L201.765 8.56067ZM183.675 3.92561C184.111 3.97227 185.215 4.00338 185.806 4.00338H192.992C193.443 4.00338 193.925 3.98783 194.205 3.97227C194.19 4.20558 194.19 4.64109 194.19 5.04549V14.44C194.19 14.6067 194.194 14.7975 194.198 14.9838V14.9849V14.9857V14.9865V14.9866V14.9868V14.987V14.9872V14.9875V14.9878V14.9881V14.9885V14.9889V14.9893C194.202 15.1663 194.205 15.3389 194.205 15.4822H192.51C192.521 15.2988 192.524 15.0033 192.525 14.7045H185.044C184.453 14.7045 183.784 14.7356 183.473 14.7511V13.1024C183.784 13.1335 184.36 13.1646 185.044 13.1646H192.525V9.97608H186.024C185.626 9.97608 185.209 9.9811 184.848 9.98543L184.848 9.98544C184.573 9.98873 184.332 9.99163 184.158 9.99163V8.40513C184.593 8.4518 185.324 8.4829 186.008 8.4829H192.525V5.49656H185.806C185.215 5.49656 184.095 5.52766 183.675 5.54322V3.92561ZM171.45 4.57888V13.5846C171.45 14.1756 171.419 15.0155 171.326 15.5755H173.239C173.176 15 173.13 14.0512 173.13 13.5846C173.13 13.2226 173.127 12.0742 173.124 10.6862L173.124 10.6672V10.6581L173.12 8.7732C174.829 9.34305 177.358 10.3201 179.009 11.1893L179.694 9.50946C178.152 8.74627 175.185 7.63686 173.117 7.01757C173.115 6.03625 173.114 5.16134 173.114 4.57888C173.114 4.03449 173.176 3.36567 173.239 2.85239H171.326C171.419 3.36567 171.45 4.0967 171.45 4.57888ZM154.356 3.80118C154.776 3.83229 155.258 3.8634 155.803 3.8634H163.238C163.751 3.8634 164.217 3.83229 164.56 3.80118V5.34102C164.449 5.3366 164.339 5.33092 164.224 5.32506L164.224 5.32505L164.224 5.32503C163.937 5.31028 163.627 5.29436 163.238 5.29436H159.365V8.31181H164.357C164.684 8.31181 165.384 8.2807 165.757 8.2496V9.83609C165.368 9.78943 164.746 9.78943 164.404 9.78943H159.365V12.5891C159.365 13.3979 159.893 13.8023 161.247 13.8023C162.693 13.8023 164 13.7246 165.306 13.5846L165.197 15.2333C164.077 15.3111 162.46 15.3733 160.998 15.3733C158.431 15.3733 157.7 14.4867 157.7 13.0869V9.78943H154.885C154.465 9.78943 153.765 9.82054 153.33 9.85165V8.23404C153.75 8.26515 154.45 8.31181 154.885 8.31181H157.7V5.29436H155.803C155.258 5.29436 154.776 5.30991 154.356 5.34102V3.80118ZM105.669 8.15627C104.814 8.15627 103.865 8.10961 103.352 8.06295V9.99163C103.88 9.94497 104.798 9.91386 105.669 9.91386H114.13C114.613 9.91386 115.121 9.94631 115.494 9.9702C115.638 9.97939 115.762 9.98731 115.857 9.99163V8.06295C115.827 8.06546 115.795 8.06817 115.762 8.07104L115.706 8.07588L115.706 8.07589C115.33 8.10864 114.782 8.15627 114.115 8.15627H105.669ZM100.676 7.19193L100.635 7.245C100.525 7.38561 100.372 7.58172 100.303 7.70521C99.8053 8.49846 98.4366 10.4427 97.1612 11.3604L95.9168 10.4894C96.9278 9.85165 97.9855 8.59178 98.4055 7.8763H91.2662C90.7841 7.8763 90.2552 7.90741 89.7419 7.95407V6.35202C90.193 6.41424 90.7841 6.4609 91.2662 6.4609H98.7477C99.0276 6.4609 99.5564 6.42979 99.7742 6.36757L100.676 7.19193ZM95.4036 8.80954C95.3413 11.9514 95.1702 14.4556 91.7328 16.3532L90.3952 15.2955C90.753 15.1555 91.1418 14.9844 91.5462 14.7045C93.4904 13.3824 93.8015 11.8114 93.8015 9.80499C93.8015 9.47835 93.7548 9.12061 93.7082 8.80954H95.4036ZM85.5891 5.57433C85.6513 5.26325 85.7446 4.92106 85.869 4.65665L84.6714 3.8945C84.3136 3.97227 83.9248 3.98783 83.6604 3.98783H76.1323C75.619 3.98783 74.888 3.92561 74.4369 3.87895V5.60543C74.5051 5.60281 74.5794 5.59975 74.659 5.59647L74.6595 5.59645C75.0523 5.58026 75.5738 5.55877 76.1167 5.55877H83.7692C83.5515 6.97418 82.8982 8.96507 81.825 10.3338C80.534 11.9514 78.792 13.2891 75.7434 14.0356L77.0811 15.4977C79.8963 14.6111 81.8406 13.118 83.256 11.2826C84.5158 9.61834 85.2469 7.16082 85.5891 5.57433ZM61.045 3.27235C61.465 3.33456 62.0249 3.35012 62.5382 3.35012H68.6042C69.0864 3.35012 69.7241 3.33456 70.1285 3.27235V4.8744C69.7396 4.84329 69.1175 4.82774 68.5731 4.82774H62.5382C62.056 4.82774 61.4805 4.84329 61.045 4.8744V3.27235ZM71.3417 7.54967C71.2484 7.72076 71.1395 7.95407 71.0928 8.09406C70.6573 9.61834 69.9729 11.1893 68.8064 12.4647C67.2044 14.2378 65.2446 15.2022 63.2537 15.7621L62.0405 14.3778C64.2958 13.9112 66.2089 12.9002 67.4688 11.5781C68.3709 10.6449 68.9308 9.47835 69.2108 8.46735H61.2783C60.905 8.46735 60.2362 8.4829 59.6296 8.52957V6.91196L59.6884 6.91648C60.2743 6.96159 60.8418 7.00528 61.2783 7.00528H69.2575C69.6774 7.00528 70.0507 6.95862 70.2374 6.8653L71.3417 7.54967ZM33.0324 13.5846V4.57888C33.0324 4.0967 33.0013 3.36567 32.908 2.85239H34.8211C34.7589 3.36567 34.6967 4.03449 34.6967 4.57888C34.6967 5.16133 34.6979 6.03625 34.6996 7.01757C36.7675 7.63686 39.735 8.74627 41.276 9.50946L40.5916 11.1893C38.9402 10.3201 36.4119 9.34305 34.7029 8.7732L34.7069 10.6581L34.7069 10.6637C34.7098 12.0618 34.7123 13.2207 34.7123 13.5846C34.7123 14.0512 34.7589 15 34.8211 15.5755H32.908C33.0013 15.0155 33.0324 14.1756 33.0324 13.5846ZM23.389 6.58533C23.389 6.19648 23.4046 5.77653 23.4512 5.41879H21.8336C21.8959 5.80763 21.9425 6.24314 21.9425 6.58533C21.9565 6.88539 21.9701 7.26838 21.9828 7.70521H17.5097C17.1208 7.70521 16.6075 7.6741 16.2342 7.62744V9.16728C16.6386 9.13617 17.1053 9.10506 17.5408 9.10506H21.332C20.2695 10.6347 17.9952 12.5421 15.721 13.6157L16.7942 14.8289C18.7876 13.7847 20.9701 11.913 22.0431 10.4608C22.0675 11.9199 22.0825 13.3843 22.0825 14.269C22.0825 14.5645 21.9581 14.7356 21.6625 14.7356C21.227 14.7356 20.4493 14.6889 19.8116 14.5956L19.905 16.011C20.5582 16.0421 21.5537 16.0888 22.2225 16.0888C23.0157 16.0888 23.5601 15.6221 23.5446 14.8911C23.5243 13.3742 23.4844 11.0224 23.4461 9.10506H25.5355C25.8465 9.10506 26.3132 9.12061 26.6242 9.13617V7.62744C26.3754 7.65855 25.831 7.70521 25.4733 7.70521H23.4166C23.4067 7.26499 23.3974 6.88289 23.389 6.58533ZM11.988 4.65665C11.8636 4.92106 11.7703 5.26325 11.7081 5.57433C11.3659 7.16082 10.6348 9.61834 9.37497 11.2826C7.95956 13.118 6.01533 14.6111 3.20007 15.4977L1.86244 14.0356C4.911 13.2891 6.65304 11.9514 7.94401 10.3338C9.01723 8.96507 9.67049 6.97418 9.88825 5.55877H2.23573C1.6928 5.55877 1.17136 5.58026 0.778553 5.59645L0.778518 5.59645L0.777342 5.5965C0.697972 5.59977 0.623866 5.60282 0.555908 5.60543V3.87895C1.00697 3.92561 1.738 3.98783 2.25128 3.98783H9.77937C10.0438 3.98783 10.4326 3.97227 10.7904 3.8945L11.988 4.65665Z" fill="#252726"/>
</svg>
